<svg width="358" height="396" viewBox="0 0 358 396" fill="none" xmlns="http://www.w3.org/2000/svg">
<path d="M23.4545 332.455H29.0909V365.727C29.0909 368.697 28.5455 371.22 27.4545 373.295C26.3636 375.371 24.8258 376.947 22.8409 378.023C20.8561 379.098 18.5152 379.636 15.8182 379.636C13.2727 379.636 11.0076 379.174 9.02273 378.25C7.03788 377.311 5.47727 375.977 4.34091 374.25C3.20455 372.523 2.63636 370.47 2.63636 368.091H8.18182C8.18182 369.409 8.50758 370.561 9.15909 371.545C9.82576 372.515 10.7348 373.273 11.8864 373.818C13.0379 374.364 14.3485 374.636 15.8182 374.636C17.4394 374.636 18.8182 374.295 19.9545 373.614C21.0909 372.932 21.9545 371.932 22.5455 370.614C23.1515 369.28 23.4545 367.652 23.4545 365.727V332.455ZM53.8409 379.727C50.6894 379.727 47.9242 378.977 45.5455 377.477C43.1818 375.977 41.3333 373.879 40 371.182C38.6818 368.485 38.0227 365.333 38.0227 361.727C38.0227 358.091 38.6818 354.917 40 352.205C41.3333 349.492 43.1818 347.386 45.5455 345.886C47.9242 344.386 50.6894 343.636 53.8409 343.636C56.9924 343.636 59.75 344.386 62.1136 345.886C64.4924 347.386 66.3409 349.492 67.6591 352.205C68.9924 354.917 69.6591 358.091 69.6591 361.727C69.6591 365.333 68.9924 368.485 67.6591 371.182C66.3409 373.879 64.4924 375.977 62.1136 377.477C59.75 378.977 56.9924 379.727 53.8409 379.727ZM53.8409 374.909C56.2348 374.909 58.2045 374.295 59.75 373.068C61.2955 371.841 62.4394 370.227 63.1818 368.227C63.9242 366.227 64.2955 364.061 64.2955 361.727C64.2955 359.394 63.9242 357.22 63.1818 355.205C62.4394 353.189 61.2955 351.561 59.75 350.318C58.2045 349.076 56.2348 348.455 53.8409 348.455C51.447 348.455 49.4773 349.076 47.9318 350.318C46.3864 351.561 45.2424 353.189 44.5 355.205C43.7576 357.22 43.3864 359.394 43.3864 361.727C43.3864 364.061 43.7576 366.227 44.5 368.227C45.2424 370.227 46.3864 371.841 47.9318 373.068C49.4773 374.295 51.447 374.909 53.8409 374.909ZM83.2102 358V379H77.8466V344.091H83.0284V349.545H83.483C84.3011 347.773 85.5436 346.348 87.2102 345.273C88.8769 344.182 91.0284 343.636 93.6648 343.636C96.0284 343.636 98.0966 344.121 99.8693 345.091C101.642 346.045 103.021 347.5 104.006 349.455C104.991 351.394 105.483 353.848 105.483 356.818V379H100.119V357.182C100.119 354.439 99.4072 352.303 97.983 350.773C96.5587 349.227 94.6042 348.455 92.1193 348.455C90.4072 348.455 88.8769 348.826 87.5284 349.568C86.1951 350.311 85.142 351.394 84.3693 352.818C83.5966 354.242 83.2102 355.97 83.2102 358ZM129.92 379.727C126.557 379.727 123.655 378.985 121.216 377.5C118.792 376 116.92 373.909 115.602 371.227C114.299 368.53 113.648 365.394 113.648 361.818C113.648 358.242 114.299 355.091 115.602 352.364C116.92 349.621 118.754 347.485 121.102 345.955C123.466 344.409 126.223 343.636 129.375 343.636C131.193 343.636 132.989 343.939 134.761 344.545C136.534 345.152 138.148 346.136 139.602 347.5C141.057 348.848 142.216 350.636 143.08 352.864C143.943 355.091 144.375 357.833 144.375 361.091V363.364H117.466V358.727H138.92C138.92 356.758 138.527 355 137.739 353.455C136.966 351.909 135.86 350.689 134.42 349.795C132.996 348.902 131.314 348.455 129.375 348.455C127.239 348.455 125.39 348.985 123.83 350.045C122.284 351.091 121.095 352.455 120.261 354.136C119.428 355.818 119.011 357.621 119.011 359.545V362.636C119.011 365.273 119.466 367.508 120.375 369.341C121.299 371.159 122.58 372.545 124.216 373.5C125.852 374.439 127.754 374.909 129.92 374.909C131.33 374.909 132.602 374.712 133.739 374.318C134.89 373.909 135.883 373.303 136.716 372.5C137.549 371.682 138.193 370.667 138.648 369.455L143.83 370.909C143.284 372.667 142.367 374.212 141.08 375.545C139.792 376.864 138.201 377.894 136.307 378.636C134.413 379.364 132.284 379.727 129.92 379.727ZM177.261 351.909L172.443 353.273C172.14 352.47 171.693 351.689 171.102 350.932C170.527 350.159 169.739 349.523 168.739 349.023C167.739 348.523 166.458 348.273 164.898 348.273C162.761 348.273 160.981 348.765 159.557 349.75C158.148 350.72 157.443 351.955 157.443 353.455C157.443 354.788 157.928 355.841 158.898 356.614C159.867 357.386 161.383 358.03 163.443 358.545L168.625 359.818C171.746 360.576 174.072 361.735 175.602 363.295C177.133 364.841 177.898 366.833 177.898 369.273C177.898 371.273 177.322 373.061 176.17 374.636C175.034 376.212 173.443 377.455 171.398 378.364C169.352 379.273 166.973 379.727 164.261 379.727C160.701 379.727 157.754 378.955 155.42 377.409C153.087 375.864 151.61 373.606 150.989 370.636L156.08 369.364C156.564 371.242 157.481 372.652 158.83 373.591C160.193 374.53 161.973 375 164.17 375C166.67 375 168.655 374.47 170.125 373.409C171.61 372.333 172.352 371.045 172.352 369.545C172.352 368.333 171.928 367.318 171.08 366.5C170.231 365.667 168.928 365.045 167.17 364.636L161.352 363.273C158.155 362.515 155.807 361.341 154.307 359.75C152.822 358.144 152.08 356.136 152.08 353.727C152.08 351.758 152.633 350.015 153.739 348.5C154.86 346.985 156.383 345.795 158.307 344.932C160.246 344.068 162.443 343.636 164.898 343.636C168.352 343.636 171.064 344.394 173.034 345.909C175.019 347.424 176.428 349.424 177.261 351.909ZM223.972 353.227V358.227H203.608V353.227H223.972ZM252.136 379V332.455H257.773V374H279.409V379H252.136ZM287.409 379V344.091H292.773V379H287.409ZM290.136 338.273C289.091 338.273 288.189 337.917 287.432 337.205C286.689 336.492 286.318 335.636 286.318 334.636C286.318 333.636 286.689 332.78 287.432 332.068C288.189 331.356 289.091 331 290.136 331C291.182 331 292.076 331.356 292.818 332.068C293.576 332.78 293.955 333.636 293.955 334.636C293.955 335.636 293.576 336.492 292.818 337.205C292.076 337.917 291.182 338.273 290.136 338.273ZM303.324 379V332.455H308.688V349.636H309.142C309.536 349.03 310.081 348.258 310.778 347.318C311.491 346.364 312.506 345.515 313.824 344.773C315.157 344.015 316.96 343.636 319.233 343.636C322.172 343.636 324.763 344.371 327.006 345.841C329.248 347.311 330.998 349.394 332.256 352.091C333.513 354.788 334.142 357.97 334.142 361.636C334.142 365.333 333.513 368.538 332.256 371.25C330.998 373.947 329.256 376.038 327.028 377.523C324.801 378.992 322.233 379.727 319.324 379.727C317.081 379.727 315.286 379.356 313.938 378.614C312.589 377.856 311.551 377 310.824 376.045C310.097 375.076 309.536 374.273 309.142 373.636H308.506V379H303.324ZM308.597 361.545C308.597 364.182 308.983 366.508 309.756 368.523C310.528 370.523 311.657 372.091 313.142 373.227C314.627 374.348 316.445 374.909 318.597 374.909C320.839 374.909 322.71 374.318 324.21 373.136C325.725 371.939 326.862 370.333 327.619 368.318C328.392 366.288 328.778 364.03 328.778 361.545C328.778 359.091 328.4 356.879 327.642 354.909C326.9 352.924 325.771 351.356 324.256 350.205C322.756 349.038 320.869 348.455 318.597 348.455C316.415 348.455 314.581 349.008 313.097 350.114C311.612 351.205 310.491 352.735 309.733 354.705C308.975 356.659 308.597 358.939 308.597 361.545Z" fill="#F15A22"/>
<path d="M23.4545 332.455H29.0909V365.727C29.0909 368.697 28.5455 371.22 27.4545 373.295C26.3636 375.371 24.8258 376.947 22.8409 378.023C20.8561 379.098 18.5152 379.636 15.8182 379.636C13.2727 379.636 11.0076 379.174 9.02273 378.25C7.03788 377.311 5.47727 375.977 4.34091 374.25C3.20455 372.523 2.63636 370.47 2.63636 368.091H8.18182C8.18182 369.409 8.50758 370.561 9.15909 371.545C9.82576 372.515 10.7348 373.273 11.8864 373.818C13.0379 374.364 14.3485 374.636 15.8182 374.636C17.4394 374.636 18.8182 374.295 19.9545 373.614C21.0909 372.932 21.9545 371.932 22.5455 370.614C23.1515 369.28 23.4545 367.652 23.4545 365.727V332.455ZM53.8409 379.727C50.6894 379.727 47.9242 378.977 45.5455 377.477C43.1818 375.977 41.3333 373.879 40 371.182C38.6818 368.485 38.0227 365.333 38.0227 361.727C38.0227 358.091 38.6818 354.917 40 352.205C41.3333 349.492 43.1818 347.386 45.5455 345.886C47.9242 344.386 50.6894 343.636 53.8409 343.636C56.9924 343.636 59.75 344.386 62.1136 345.886C64.4924 347.386 66.3409 349.492 67.6591 352.205C68.9924 354.917 69.6591 358.091 69.6591 361.727C69.6591 365.333 68.9924 368.485 67.6591 371.182C66.3409 373.879 64.4924 375.977 62.1136 377.477C59.75 378.977 56.9924 379.727 53.8409 379.727ZM53.8409 374.909C56.2348 374.909 58.2045 374.295 59.75 373.068C61.2955 371.841 62.4394 370.227 63.1818 368.227C63.9242 366.227 64.2955 364.061 64.2955 361.727C64.2955 359.394 63.9242 357.22 63.1818 355.205C62.4394 353.189 61.2955 351.561 59.75 350.318C58.2045 349.076 56.2348 348.455 53.8409 348.455C51.447 348.455 49.4773 349.076 47.9318 350.318C46.3864 351.561 45.2424 353.189 44.5 355.205C43.7576 357.22 43.3864 359.394 43.3864 361.727C43.3864 364.061 43.7576 366.227 44.5 368.227C45.2424 370.227 46.3864 371.841 47.9318 373.068C49.4773 374.295 51.447 374.909 53.8409 374.909ZM83.2102 358V379H77.8466V344.091H83.0284V349.545H83.483C84.3011 347.773 85.5436 346.348 87.2102 345.273C88.8769 344.182 91.0284 343.636 93.6648 343.636C96.0284 343.636 98.0966 344.121 99.8693 345.091C101.642 346.045 103.021 347.5 104.006 349.455C104.991 351.394 105.483 353.848 105.483 356.818V379H100.119V357.182C100.119 354.439 99.4072 352.303 97.983 350.773C96.5587 349.227 94.6042 348.455 92.1193 348.455C90.4072 348.455 88.8769 348.826 87.5284 349.568C86.1951 350.311 85.142 351.394 84.3693 352.818C83.5966 354.242 83.2102 355.97 83.2102 358ZM129.92 379.727C126.557 379.727 123.655 378.985 121.216 377.5C118.792 376 116.92 373.909 115.602 371.227C114.299 368.53 113.648 365.394 113.648 361.818C113.648 358.242 114.299 355.091 115.602 352.364C116.92 349.621 118.754 347.485 121.102 345.955C123.466 344.409 126.223 343.636 129.375 343.636C131.193 343.636 132.989 343.939 134.761 344.545C136.534 345.152 138.148 346.136 139.602 347.5C141.057 348.848 142.216 350.636 143.08 352.864C143.943 355.091 144.375 357.833 144.375 361.091V363.364H117.466V358.727H138.92C138.92 356.758 138.527 355 137.739 353.455C136.966 351.909 135.86 350.689 134.42 349.795C132.996 348.902 131.314 348.455 129.375 348.455C127.239 348.455 125.39 348.985 123.83 350.045C122.284 351.091 121.095 352.455 120.261 354.136C119.428 355.818 119.011 357.621 119.011 359.545V362.636C119.011 365.273 119.466 367.508 120.375 369.341C121.299 371.159 122.58 372.545 124.216 373.5C125.852 374.439 127.754 374.909 129.92 374.909C131.33 374.909 132.602 374.712 133.739 374.318C134.89 373.909 135.883 373.303 136.716 372.5C137.549 371.682 138.193 370.667 138.648 369.455L143.83 370.909C143.284 372.667 142.367 374.212 141.08 375.545C139.792 376.864 138.201 377.894 136.307 378.636C134.413 379.364 132.284 379.727 129.92 379.727ZM177.261 351.909L172.443 353.273C172.14 352.47 171.693 351.689 171.102 350.932C170.527 350.159 169.739 349.523 168.739 349.023C167.739 348.523 166.458 348.273 164.898 348.273C162.761 348.273 160.981 348.765 159.557 349.75C158.148 350.72 157.443 351.955 157.443 353.455C157.443 354.788 157.928 355.841 158.898 356.614C159.867 357.386 161.383 358.03 163.443 358.545L168.625 359.818C171.746 360.576 174.072 361.735 175.602 363.295C177.133 364.841 177.898 366.833 177.898 369.273C177.898 371.273 177.322 373.061 176.17 374.636C175.034 376.212 173.443 377.455 171.398 378.364C169.352 379.273 166.973 379.727 164.261 379.727C160.701 379.727 157.754 378.955 155.42 377.409C153.087 375.864 151.61 373.606 150.989 370.636L156.08 369.364C156.564 371.242 157.481 372.652 158.83 373.591C160.193 374.53 161.973 375 164.17 375C166.67 375 168.655 374.47 170.125 373.409C171.61 372.333 172.352 371.045 172.352 369.545C172.352 368.333 171.928 367.318 171.08 366.5C170.231 365.667 168.928 365.045 167.17 364.636L161.352 363.273C158.155 362.515 155.807 361.341 154.307 359.75C152.822 358.144 152.08 356.136 152.08 353.727C152.08 351.758 152.633 350.015 153.739 348.5C154.86 346.985 156.383 345.795 158.307 344.932C160.246 344.068 162.443 343.636 164.898 343.636C168.352 343.636 171.064 344.394 173.034 345.909C175.019 347.424 176.428 349.424 177.261 351.909ZM223.972 353.227V358.227H203.608V353.227H223.972ZM252.136 379V332.455H257.773V374H279.409V379H252.136ZM287.409 379V344.091H292.773V379H287.409ZM290.136 338.273C289.091 338.273 288.189 337.917 287.432 337.205C286.689 336.492 286.318 335.636 286.318 334.636C286.318 333.636 286.689 332.78 287.432 332.068C288.189 331.356 289.091 331 290.136 331C291.182 331 292.076 331.356 292.818 332.068C293.576 332.78 293.955 333.636 293.955 334.636C293.955 335.636 293.576 336.492 292.818 337.205C292.076 337.917 291.182 338.273 290.136 338.273ZM303.324 379V332.455H308.688V349.636H309.142C309.536 349.03 310.081 348.258 310.778 347.318C311.491 346.364 312.506 345.515 313.824 344.773C315.157 344.015 316.96 343.636 319.233 343.636C322.172 343.636 324.763 344.371 327.006 345.841C329.248 347.311 330.998 349.394 332.256 352.091C333.513 354.788 334.142 357.97 334.142 361.636C334.142 365.333 333.513 368.538 332.256 371.25C330.998 373.947 329.256 376.038 327.028 377.523C324.801 378.992 322.233 379.727 319.324 379.727C317.081 379.727 315.286 379.356 313.938 378.614C312.589 377.856 311.551 377 310.824 376.045C310.097 375.076 309.536 374.273 309.142 373.636H308.506V379H303.324ZM308.597 361.545C308.597 364.182 308.983 366.508 309.756 368.523C310.528 370.523 311.657 372.091 313.142 373.227C314.627 374.348 316.445 374.909 318.597 374.909C320.839 374.909 322.71 374.318 324.21 373.136C325.725 371.939 326.862 370.333 327.619 368.318C328.392 366.288 328.778 364.03 328.778 361.545C328.778 359.091 328.4 356.879 327.642 354.909C326.9 352.924 325.771 351.356 324.256 350.205C322.756 349.038 320.869 348.455 318.597 348.455C316.415 348.455 314.581 349.008 313.097 350.114C311.612 351.205 310.491 352.735 309.733 354.705C308.975 356.659 308.597 358.939 308.597 361.545Z" fill="#FFF792" fill-opacity="0.66"/>
<path fill-rule="evenodd" clip-rule="evenodd" d="M249.535 84H107.535V120H67.5347V161H84.5347V179.468L86.5088 184.354C86.582 184.381 86.6568 184.408 86.7332 184.434C87.5761 186.51 88.7924 188.724 90.3429 190.898C92.1324 193.407 94.1179 195.512 96.0586 197.068C96.2004 198.155 99.4448 199.872 103.646 201.037C105.029 201.421 106.355 201.7 107.535 201.87V213V213.726V228.742V229H107.719L115.664 240.14L115.706 240.11C117.902 242.948 120.405 245.297 123.011 247.079L143.517 272.403L153.715 282.251L153.736 282.23C157.933 285.623 167.68 288 179.035 288C191.934 288 202.759 284.932 205.728 280.793L205.731 280.794L205.745 280.769C205.868 280.596 205.977 280.421 206.072 280.244C211.091 276.321 218.212 269.325 225.566 260.866C230.788 254.859 235.295 249.07 238.61 244.244C241.122 241.64 244.136 236.055 246.476 229.261C248.738 222.689 249.807 216.62 249.535 212.973V208.368C250.008 208.682 252.618 207.478 255.534 205.585C258.573 203.611 260.793 201.635 260.493 201.172C260.47 201.138 260.434 201.112 260.386 201.096L260.535 201V186.86C261.317 186.381 262.23 185.621 263.113 184.675C264.374 183.322 265.251 181.933 265.501 181H265.535V180.859C265.586 180.612 265.588 180.402 265.535 180.241V169.853L269.945 164H278.535V139H265.535V132H249.535V84Z" fill="#E8B693"/>
<path fill-rule="evenodd" clip-rule="evenodd" d="M177.035 0C203.58 0 226.321 4.36069 235.808 10.5523L242.855 21.4028L258.651 46.6817L258.141 47H258.535V98.7068L264.646 107.118L265.307 107.308L262.376 117.53L277.696 125.003L282.223 127.309L282.263 127.23L282.455 127.324L320.039 124.696C321.723 124.578 323.193 125.785 323.429 127.429C323.566 127.721 323.553 128.065 323.393 128.347C322.867 131.815 315.916 140.312 306.275 148.993C299.394 155.188 292.75 160.03 288.236 162.354L286.535 163.996V164H286.531L286.313 164.21L286.11 164H269.912C271.528 161.675 272.535 158.4 272.535 154.773C272.535 148.488 269.514 143.263 265.535 142.198V134.702L259.628 135.743C252.877 138.766 228.98 141 200.535 141C177.618 141 157.653 139.55 147.228 137.406L147.228 137.407L147.196 137.399C145.976 137.148 144.888 136.887 143.942 136.617C137.272 135.797 128.283 134.165 118.479 131.902C109.184 129.756 100.796 127.421 94.5347 125.321V137.887C93.6254 136.036 92.6083 135 91.5347 135C87.6687 135 84.5347 148.431 84.5347 165C84.5347 171.754 85.0554 177.986 85.9341 183H84.3352C81.503 183.543 75.5837 182.108 69.2421 179.151C64.1653 176.784 60.0099 173.997 57.8336 171.687C57.2869 171.28 56.7475 170.783 56.2457 170.205C55.6096 169.474 55.1086 168.7 54.7574 167.949C51.2594 164.297 47.1835 158.605 43.4429 151.857C38.2479 142.485 35.1238 133.645 35.0085 128.806C34.9549 127.87 35.1561 126.3 35.5892 124.563C35.9539 123.1 36.4084 121.818 36.8335 120.972C37.029 120.532 37.2427 120.133 37.4719 119.779C37.6712 119.387 37.8889 118.984 38.1235 118.578C38.9917 117.074 39.9249 115.8 40.7288 114.959C42.4243 113.034 44.4288 111.848 46.1539 111.695L46.1553 111.682L46.2236 111.689C46.6995 111.655 47.1534 111.7 47.5727 111.831L60.5175 113.192L100.535 115.289V88C100.535 86.9924 101.839 86.1589 103.535 86.0203V48V36.8452V30.6544C105.13 25.7747 109.723 19.6891 116.254 14.4004C117.534 13.3643 118.828 12.4073 120.12 11.5341L122.47 8.29965C133.552 3.32901 153.841 0 177.035 0Z" fill="#4F5048"/>
</svg>
